<svg width="184" height="183" viewBox="0 0 184 183" fill="none" xmlns="http://www.w3.org/2000/svg">
  <path d="M68.5 163.75C42.9729 163.75 18.4913 153.609 0.440971 135.559C-17.6094 117.509 -27.75 93.0271 -27.75 67.5C-27.75 41.9729 -17.6094 17.4913 0.440971 -0.559029C18.4913 -18.6094 42.9729 -28.75 68.5 -28.75C94.0271 -28.75 118.509 -18.6094 136.559 -0.559029C154.609 17.4913 164.75 41.9729 164.75 67.5C164.75 93.0271 154.609 117.509 136.559 135.559C118.509 153.609 94.0271 163.75 68.5 163.75ZM68.5 144.5C88.9217 144.5 108.507 136.388 122.947 121.947C137.388 107.507 145.5 87.9217 145.5 67.5C145.5 47.0783 137.388 27.4931 122.947 13.0528C108.507 -1.38752 88.9217 -9.5 68.5 -9.5C48.0783 -9.5 28.4931 -1.38752 14.0528 13.0528C-0.387522 27.4931 -8.5 47.0783 -8.5 67.5C-8.5 87.9217 -0.387522 107.507 14.0528 121.947C28.4931 136.388 48.0783 144.5 68.5 144.5ZM78.125 38.625V57.875H87.75C95.4081 57.875 102.753 60.9172 108.168 66.3323C113.583 71.7474 116.625 79.0919 116.625 86.75C116.625 94.4081 113.583 101.753 108.168 107.168C102.753 112.583 95.4081 115.625 87.75 115.625H78.125V125.25C78.125 127.803 77.1109 130.251 75.3059 132.056C73.5009 133.861 71.0527 134.875 68.5 134.875C65.9473 134.875 63.4991 133.861 61.6941 132.056C59.8891 130.251 58.875 127.803 58.875 125.25V115.625H30C27.4473 115.625 24.9991 114.611 23.1941 112.806C21.3891 111.001 20.375 108.553 20.375 106C20.375 103.447 21.3891 100.999 23.1941 99.1941C24.9991 97.3891 27.4473 96.375 30 96.375H58.875V77.125H49.25C41.5919 77.125 34.2474 74.0828 28.8323 68.6677C23.4172 63.2526 20.375 55.9081 20.375 48.25C20.375 40.5919 23.4172 33.2474 28.8323 27.8323C34.2474 22.4172 41.5919 19.375 49.25 19.375H58.875V9.75C58.875 7.19729 59.8891 4.74914 61.6941 2.9441C63.4991 1.13906 65.9473 0.125 68.5 0.125C71.0527 0.125 73.5009 1.13906 75.3059 2.9441C77.1109 4.74914 78.125 7.19729 78.125 9.75V19.375H107C109.553 19.375 112.001 20.3891 113.806 22.1941C115.611 23.9991 116.625 26.4473 116.625 29C116.625 31.5527 115.611 34.0009 113.806 35.8059C112.001 37.6109 109.553 38.625 107 38.625H78.125ZM58.875 38.625H49.25C46.6973 38.625 44.2491 39.6391 42.4441 41.4441C40.6391 43.2491 39.625 45.6973 39.625 48.25C39.625 50.8027 40.6391 53.2509 42.4441 55.0559C44.2491 56.8609 46.6973 57.875 49.25 57.875H58.875V38.625ZM78.125 96.375H87.75C90.3027 96.375 92.7509 95.3609 94.5559 93.5559C96.3609 91.7509 97.375 89.3027 97.375 86.75C97.375 84.1973 96.3609 81.7491 94.5559 79.9441C92.7509 78.1391 90.3027 77.125 87.75 77.125H78.125V96.375Z" fill="#C80900"/>
</svg>
